<mxfile host="app.diagrams.net" modified="2024-02-26T05:47:06.031Z" agent="Mozilla/5.0 (Macintosh; Intel Mac OS X 10_15_7) AppleWebKit/537.36 (KHTML, like Gecko) Chrome/121.0.0.0 Safari/537.36" etag="1Y6z7iJzdq_eSLMr-dL7" version="23.1.6" type="device">
  <diagram name="Page-1" id="LGbS5f3q8XHRXUicFb5_">
    <mxGraphModel dx="848" dy="839" grid="1" gridSize="10" guides="1" tooltips="1" connect="1" arrows="1" fold="1" page="1" pageScale="1" pageWidth="827" pageHeight="1169" math="0" shadow="0">
      <root>
        <mxCell id="0" />
        <mxCell id="1" parent="0" />
        <mxCell id="MEgy0gwF5HbnC5FuC2Yj-23" value="" style="rounded=0;whiteSpace=wrap;html=1;" vertex="1" parent="1">
          <mxGeometry x="20" y="330" width="330" height="390" as="geometry" />
        </mxCell>
        <mxCell id="MEgy0gwF5HbnC5FuC2Yj-3" value="&lt;font style=&quot;font-size: 14px;&quot;&gt;LLM&lt;/font&gt;" style="ellipse;whiteSpace=wrap;html=1;aspect=fixed;" vertex="1" parent="1">
          <mxGeometry x="145" y="340" width="70" height="70" as="geometry" />
        </mxCell>
        <mxCell id="MEgy0gwF5HbnC5FuC2Yj-32" style="edgeStyle=orthogonalEdgeStyle;rounded=0;orthogonalLoop=1;jettySize=auto;html=1;exitX=0.5;exitY=1;exitDx=0;exitDy=0;entryX=0.5;entryY=0;entryDx=0;entryDy=0;" edge="1" parent="1" source="MEgy0gwF5HbnC5FuC2Yj-7" target="MEgy0gwF5HbnC5FuC2Yj-29">
          <mxGeometry relative="1" as="geometry" />
        </mxCell>
        <mxCell id="MEgy0gwF5HbnC5FuC2Yj-7" value="个人生活分享" style="rounded=1;whiteSpace=wrap;html=1;" vertex="1" parent="1">
          <mxGeometry x="50" y="472.5" width="80" height="57.5" as="geometry" />
        </mxCell>
        <mxCell id="MEgy0gwF5HbnC5FuC2Yj-11" style="rounded=0;orthogonalLoop=1;jettySize=auto;html=1;endArrow=none;endFill=0;entryX=0.5;entryY=1;entryDx=0;entryDy=0;" edge="1" parent="1" target="MEgy0gwF5HbnC5FuC2Yj-3">
          <mxGeometry relative="1" as="geometry">
            <mxPoint x="180" y="440" as="sourcePoint" />
            <mxPoint x="180" y="420" as="targetPoint" />
          </mxGeometry>
        </mxCell>
        <mxCell id="MEgy0gwF5HbnC5FuC2Yj-12" value="分类" style="edgeLabel;html=1;align=center;verticalAlign=middle;resizable=0;points=[];" vertex="1" connectable="0" parent="MEgy0gwF5HbnC5FuC2Yj-11">
          <mxGeometry x="0.125" y="-2" relative="1" as="geometry">
            <mxPoint as="offset" />
          </mxGeometry>
        </mxCell>
        <mxCell id="MEgy0gwF5HbnC5FuC2Yj-10" value="" style="shape=curlyBracket;whiteSpace=wrap;html=1;rounded=1;labelPosition=left;verticalLabelPosition=middle;align=right;verticalAlign=middle;rotation=90;" vertex="1" parent="1">
          <mxGeometry x="170" y="360" width="20" height="180" as="geometry" />
        </mxCell>
        <mxCell id="MEgy0gwF5HbnC5FuC2Yj-13" value="" style="endArrow=classic;html=1;rounded=0;exitX=0.5;exitY=1;exitDx=0;exitDy=0;" edge="1" parent="1" source="MEgy0gwF5HbnC5FuC2Yj-42">
          <mxGeometry width="50" height="50" relative="1" as="geometry">
            <mxPoint x="180" y="300" as="sourcePoint" />
            <mxPoint x="179.5" y="327.5" as="targetPoint" />
          </mxGeometry>
        </mxCell>
        <mxCell id="MEgy0gwF5HbnC5FuC2Yj-33" style="edgeStyle=orthogonalEdgeStyle;rounded=0;orthogonalLoop=1;jettySize=auto;html=1;exitX=0.5;exitY=1;exitDx=0;exitDy=0;entryX=0.5;entryY=0;entryDx=0;entryDy=0;" edge="1" parent="1" source="MEgy0gwF5HbnC5FuC2Yj-21" target="MEgy0gwF5HbnC5FuC2Yj-30">
          <mxGeometry relative="1" as="geometry" />
        </mxCell>
        <mxCell id="MEgy0gwF5HbnC5FuC2Yj-21" value="观点与看法" style="rounded=1;whiteSpace=wrap;html=1;" vertex="1" parent="1">
          <mxGeometry x="140" y="472.5" width="80" height="57.5" as="geometry" />
        </mxCell>
        <mxCell id="MEgy0gwF5HbnC5FuC2Yj-34" style="edgeStyle=orthogonalEdgeStyle;rounded=0;orthogonalLoop=1;jettySize=auto;html=1;exitX=0.5;exitY=1;exitDx=0;exitDy=0;entryX=0.5;entryY=0;entryDx=0;entryDy=0;" edge="1" parent="1" source="MEgy0gwF5HbnC5FuC2Yj-22" target="MEgy0gwF5HbnC5FuC2Yj-31">
          <mxGeometry relative="1" as="geometry" />
        </mxCell>
        <mxCell id="MEgy0gwF5HbnC5FuC2Yj-22" value="情感表达" style="rounded=1;whiteSpace=wrap;html=1;" vertex="1" parent="1">
          <mxGeometry x="230" y="472.5" width="80" height="57.5" as="geometry" />
        </mxCell>
        <mxCell id="MEgy0gwF5HbnC5FuC2Yj-29" value="Chain 1" style="rounded=1;whiteSpace=wrap;html=1;" vertex="1" parent="1">
          <mxGeometry x="50" y="556" width="80" height="57.5" as="geometry" />
        </mxCell>
        <mxCell id="MEgy0gwF5HbnC5FuC2Yj-30" value="Chain 2" style="rounded=1;whiteSpace=wrap;html=1;" vertex="1" parent="1">
          <mxGeometry x="140" y="556" width="80" height="57.5" as="geometry" />
        </mxCell>
        <mxCell id="MEgy0gwF5HbnC5FuC2Yj-31" value="Chain 3" style="rounded=1;whiteSpace=wrap;html=1;" vertex="1" parent="1">
          <mxGeometry x="230" y="556" width="80" height="57.5" as="geometry" />
        </mxCell>
        <mxCell id="MEgy0gwF5HbnC5FuC2Yj-35" value="Output Parser" style="rounded=1;whiteSpace=wrap;html=1;" vertex="1" parent="1">
          <mxGeometry x="50" y="640" width="260" height="60" as="geometry" />
        </mxCell>
        <mxCell id="MEgy0gwF5HbnC5FuC2Yj-36" value="" style="shape=curlyBracket;whiteSpace=wrap;html=1;rounded=1;flipH=1;labelPosition=right;verticalLabelPosition=middle;align=left;verticalAlign=middle;rotation=90;" vertex="1" parent="1">
          <mxGeometry x="170" y="540" width="20" height="180" as="geometry" />
        </mxCell>
        <mxCell id="MEgy0gwF5HbnC5FuC2Yj-38" value="分析结果" style="rounded=1;whiteSpace=wrap;html=1;" vertex="1" parent="1">
          <mxGeometry x="120" y="740" width="120" height="60" as="geometry" />
        </mxCell>
        <mxCell id="MEgy0gwF5HbnC5FuC2Yj-40" value="" style="endArrow=classic;html=1;rounded=0;entryX=0.5;entryY=0;entryDx=0;entryDy=0;" edge="1" parent="1" target="MEgy0gwF5HbnC5FuC2Yj-38">
          <mxGeometry width="50" height="50" relative="1" as="geometry">
            <mxPoint x="180" y="700" as="sourcePoint" />
            <mxPoint x="230" y="650" as="targetPoint" />
          </mxGeometry>
        </mxCell>
        <mxCell id="MEgy0gwF5HbnC5FuC2Yj-41" value="" style="edgeStyle=orthogonalEdgeStyle;rounded=0;orthogonalLoop=1;jettySize=auto;html=1;" edge="1" parent="1" target="MEgy0gwF5HbnC5FuC2Yj-28">
          <mxGeometry relative="1" as="geometry">
            <mxPoint x="440" y="510" as="targetPoint" />
            <mxPoint x="180" y="310" as="sourcePoint" />
            <Array as="points">
              <mxPoint x="180" y="280" />
            </Array>
          </mxGeometry>
        </mxCell>
        <mxCell id="MEgy0gwF5HbnC5FuC2Yj-28" value="向量数据库" style="shape=cylinder3;whiteSpace=wrap;html=1;boundedLbl=1;backgroundOutline=1;size=15;" vertex="1" parent="1">
          <mxGeometry x="260" y="240" width="86" height="80" as="geometry" />
        </mxCell>
        <mxCell id="MEgy0gwF5HbnC5FuC2Yj-42" value="用户发言" style="rounded=1;whiteSpace=wrap;html=1;" vertex="1" parent="1">
          <mxGeometry x="130" y="200" width="100" height="60" as="geometry" />
        </mxCell>
        <mxCell id="MEgy0gwF5HbnC5FuC2Yj-44" value="&lt;font style=&quot;font-size: 16px;&quot;&gt;Langchain&lt;/font&gt;" style="text;html=1;align=center;verticalAlign=middle;whiteSpace=wrap;rounded=0;" vertex="1" parent="1">
          <mxGeometry x="260" y="340" width="60" height="30" as="geometry" />
        </mxCell>
      </root>
    </mxGraphModel>
  </diagram>
</mxfile>
